<svg width="320" height="71" viewBox="0 0 320 71" fill="none" xmlns="http://www.w3.org/2000/svg">
<g >
<rect fill="white" x="0.525421" y="0.304001" width="320" height="71"/>
<path d="M40.4454 21.744C44.2161 25.0293 46.1014 29.6773 46.1014 35.688C46.1014 41.4747 44.0854 46.2907 40.0534 50.136C37.5148 52.5627 34.4721 53.776 30.9254 53.776C27.4161 53.776 25.3254 52.208 24.6534 49.072C24.5041 48.3627 24.4294 47.6533 24.4294 46.944C24.4294 44.5173 25.2321 41.8667 26.8374 38.992C28.8908 35.2587 31.5041 32.664 34.6774 31.208C36.1708 30.536 37.6454 30.2 39.1014 30.2C39.3254 30.2 39.4748 30.312 39.5494 30.536C39.6241 30.76 39.6054 30.984 39.4934 31.208C39.4188 31.3947 39.2694 31.488 39.0454 31.488C35.6481 31.488 32.5681 33.28 29.8054 36.864C27.2668 40.1867 25.9974 43.5653 25.9974 47C25.9974 49.688 27.0054 51.3307 29.0214 51.928C29.4694 52.04 29.9734 52.096 30.5334 52.096C32.4748 52.096 34.3041 51.4053 36.0214 50.024C39.2694 47.4107 41.4348 43.1733 42.5174 37.312C42.7041 36.192 42.7974 34.9973 42.7974 33.728C42.7974 32.4213 42.6294 31.0587 42.2934 29.64C41.7334 27.1013 40.6694 24.9547 39.1014 23.2C35.3308 26.896 30.8694 28.744 25.7174 28.744H25.3254C24.3174 37.1067 22.5814 42.856 20.1174 45.992C19.0721 47.2613 17.7281 48.3253 16.0854 49.184C14.4428 50.0427 12.6134 50.472 10.5974 50.472C8.61875 50.472 6.95742 50.136 5.61342 49.464C4.30675 48.792 3.35475 47.9333 2.75742 46.888C1.93609 45.3573 1.52542 43.9573 1.52542 42.688C1.52542 41.4187 1.71209 40.2427 2.08542 39.16C2.45875 38.04 3.00009 36.9573 3.70942 35.912C4.41875 34.8293 5.35209 33.952 6.50942 33.28C7.66675 32.608 8.91742 32.272 10.2614 32.272C11.0081 32.272 11.5308 32.5333 11.8294 33.056L11.9414 33.336C8.69342 33.336 6.21075 34.7173 4.49342 37.48C3.52275 39.048 3.03742 40.6533 3.03742 42.296C3.03742 43.0427 3.13075 43.808 3.31742 44.592C4.13875 47.504 6.19209 48.96 9.47742 48.96C12.2401 48.96 14.4054 47.9147 15.9734 45.824C17.6908 43.6213 18.9228 41.064 19.6694 38.152C20.4908 35.0907 21.2001 31.768 21.7974 28.184C19.8561 27.5493 18.5868 26.5227 17.9894 25.104C17.7654 24.5813 17.6534 23.9653 17.6534 23.256C17.6534 22.5467 17.9894 21.7627 18.6614 20.904C19.6694 19.4853 21.3121 18.496 23.5894 17.936C24.2988 14.6507 25.1761 12.1493 26.2214 10.432C27.2668 8.67733 28.6668 7.8 30.4214 7.8C30.9441 7.8 31.2801 8.024 31.4294 8.472L31.5414 8.752C30.1228 8.752 29.0401 9.51733 28.2934 11.048C27.5468 12.5413 26.9681 14.7067 26.5574 17.544C26.7814 17.5067 27.1361 17.488 27.6214 17.488C31.6534 17.488 35.1628 18.3467 38.1494 20.064C40.1281 17.1147 41.1174 14.1653 41.1174 11.216C41.1174 9.05067 40.3708 7.09067 38.8774 5.336C37.4214 3.58133 35.0134 2.704 31.6534 2.704C24.8588 2.704 19.4828 5.14933 15.5254 10.04C12.5014 13.736 10.9894 17.768 10.9894 22.136C10.9894 25.2347 11.8668 27.3813 13.6214 28.576C14.3681 29.0987 15.2454 29.36 16.2534 29.36C15.8801 30.2187 15.3014 30.648 14.5174 30.648C11.7548 30.648 9.88809 29.2107 8.91742 26.336C8.46942 25.0667 8.24542 23.5547 8.24542 21.8C8.24542 20.008 8.74942 17.88 9.75742 15.416C11.6988 10.5253 14.9654 6.81067 19.5574 4.272C23.1041 2.29333 27.1361 1.304 31.6534 1.304C34.4908 1.304 36.8801 1.752 38.8214 2.648C42.5921 4.36533 44.4774 7.37067 44.4774 11.664C44.4774 15.0987 43.1334 18.4587 40.4454 21.744ZM37.1414 21.464C34.6774 19.672 31.5041 18.776 27.6214 18.776C27.6214 18.776 27.2108 18.7947 26.3894 18.832C26.0534 21.8187 25.7548 24.6373 25.4934 27.288H25.6614C30.2161 27.288 34.0428 25.3467 37.1414 21.464ZM23.3094 19.448C20.6214 20.344 19.2774 21.744 19.2774 23.648C19.2774 25.0293 20.1921 26.056 22.0214 26.728C22.6188 23.0693 23.0481 20.6427 23.3094 19.448Z"/>
<path d="M64.9914 1.36C66.6714 1.36 67.5114 2.48 67.5114 4.72C67.5114 5.28 67.4554 5.93333 67.3434 6.68C66.7834 10.2267 65.3087 13.8853 62.9194 17.656C61.202 20.3813 59.578 22.0987 58.0474 22.808C57.3007 26.84 56.6474 30.4987 56.0874 33.784H56.4794C59.6154 26.8027 62.7887 23.312 65.9994 23.312C67.1567 23.312 68.0527 23.6667 68.6874 24.376C69.3594 25.0853 69.6954 26.056 69.6954 27.288C69.6954 28.52 69.21 31.2267 68.2394 35.408C67.2687 39.552 66.7834 42.4453 66.7834 44.088C66.7834 46.5147 67.2314 47.728 68.1274 47.728C68.1274 47.9893 67.9594 48.2507 67.6234 48.512C67.2874 48.7733 66.8954 48.904 66.4474 48.904C64.282 48.904 63.1994 47.2053 63.1994 43.808C63.1994 41.7173 63.7407 38.6187 64.8234 34.512C65.9434 30.368 66.5034 27.6987 66.5034 26.504C66.5034 25.3093 66.0367 24.712 65.1034 24.712C64.0207 24.712 62.826 25.6267 61.5194 27.456C60.2127 29.2853 58.9994 31.6187 57.8794 34.456C56.0127 39.0107 54.6127 42.8187 53.6794 45.88C53.4554 46.6267 53.138 47 52.7274 47C52.0554 47 51.5514 46.5893 51.2154 45.768C51.0287 45.32 50.9354 44.8533 50.9354 44.368C50.9354 43.8453 51.0847 42.912 51.3834 41.568C51.682 40.1867 52.186 37.7787 52.8954 34.344C53.5674 30.9093 54.146 28.072 54.6314 25.832C55.1167 23.5547 55.6767 21.016 56.3114 18.216C56.946 15.3787 57.5434 13.0827 58.1034 11.328C58.7007 9.536 59.3727 7.81867 60.1194 6.176C61.538 2.96533 63.162 1.36 64.9914 1.36ZM66.2234 4.832C66.2234 3.63733 65.8874 2.90933 65.2154 2.648C63.0127 2.648 60.7354 8.808 58.3834 21.128C59.8767 20.0827 61.426 17.992 63.0314 14.856C65.1594 10.6373 66.2234 7.296 66.2234 4.832Z"/>
<path d="M78.2721 47.056C75.3228 47.056 73.8481 44.8347 73.8481 40.392C73.8481 37.816 74.5201 34.9973 75.8641 31.936C77.7308 27.792 80.1014 25.0853 82.9761 23.816C83.9841 23.4053 84.9921 23.2 86.0001 23.2C87.0454 23.2 87.8668 23.4987 88.4641 24.096C89.0614 24.6933 89.3601 25.3653 89.3601 26.112C89.3601 26.448 89.1734 26.616 88.8001 26.616C88.4641 26.5787 88.2961 26.392 88.2961 26.056C88.2961 25.72 88.1094 25.4213 87.7361 25.16C87.4001 24.8613 86.8961 24.712 86.2241 24.712C83.8721 24.712 81.7441 26.8213 79.8401 31.04C78.0481 34.96 77.1521 38.6747 77.1521 42.184C77.1521 44.3493 77.6188 45.432 78.5521 45.432C79.5228 45.432 80.6801 44.6293 82.0241 43.024C83.4054 41.3813 84.6748 39.4773 85.8321 37.312C88.3334 32.7573 89.8081 29.8267 90.2561 28.52C90.7041 27.2133 91.1894 26.56 91.7121 26.56C92.6454 26.56 93.1121 27.344 93.1121 28.912C93.1121 29.3973 93.0561 29.9573 92.9441 30.592C91.7121 36.5653 91.0401 40.0187 90.9281 40.952C90.8534 41.8853 90.8161 42.5573 90.8161 42.968C90.8161 44.76 91.2454 45.656 92.1041 45.656C93.0748 45.656 94.4374 44.368 96.1921 41.792C97.9468 39.216 99.4588 36.64 100.728 34.064L102.632 30.2H104.144C103.92 30.648 103.621 31.264 103.248 32.048C102.912 32.7947 102.221 34.1573 101.176 36.136C100.131 38.0773 99.1228 39.7947 98.1521 41.288C97.2188 42.7813 96.1548 44.144 94.9601 45.376C93.8028 46.5707 92.7948 47.168 91.9361 47.168C89.1734 47.168 87.7921 45.152 87.7921 41.12C87.7921 39.776 87.9414 38.208 88.2401 36.416H87.8481C84.0401 43.5093 80.8481 47.056 78.2721 47.056Z"/>
<path d="M114.024 22.192C115.629 22.192 116.432 23.7413 116.432 26.84C116.432 27.4 116.395 27.9787 116.32 28.576C116.955 28.7627 117.683 28.856 118.504 28.856C119.325 28.856 120.072 28.5013 120.744 27.792C121.416 27.0827 121.752 26.4293 121.752 25.832C121.752 25.6827 121.845 25.5893 122.032 25.552C122.219 25.4773 122.387 25.4773 122.536 25.552C122.723 25.6267 122.816 25.7387 122.816 25.888C122.816 26.9707 122.349 27.9973 121.416 28.968C120.52 29.9387 119.307 30.424 117.776 30.424C117.179 30.424 116.637 30.368 116.152 30.256C115.181 36.2293 113.24 40.9147 110.328 44.312C108.797 46.104 107.304 47 105.848 47C103.16 47 101.517 46.104 100.92 44.312C100.584 43.3413 100.416 42.3147 100.416 41.232C100.416 40.1493 100.565 38.8613 100.864 37.368C101.349 34.9413 102.357 31.04 103.888 25.664C104.112 24.88 104.467 24.488 104.952 24.488C105.624 24.488 106.109 24.9733 106.408 25.944C106.557 26.3547 106.632 26.8773 106.632 27.512C106.632 28.1093 106.52 28.8373 106.296 29.696C104.877 35.0347 104.075 38.264 103.888 39.384C103.701 40.4667 103.608 41.4 103.608 42.184C103.608 44.3867 104.299 45.488 105.68 45.488C107.696 45.488 109.563 43.808 111.28 40.448C113.035 37.088 114.229 33.5227 114.864 29.752C113.744 29.1547 112.997 28.3707 112.624 27.4C112.288 26.392 112.12 25.6267 112.12 25.104C112.12 24.544 112.195 24.0587 112.344 23.648C112.643 22.6773 113.203 22.192 114.024 22.192Z"/>
<path d="M119.711 69.344C116.164 69.344 114.391 67.5333 114.391 63.912C114.391 61.784 115.193 59.488 116.799 57.024C119.113 53.4027 122.212 51.0133 126.095 49.856C127.476 49.4453 128.913 49.24 130.407 49.24C130.668 49.24 130.799 49.5013 130.799 50.024C130.799 50.5467 130.668 50.808 130.407 50.808C126.001 50.808 122.305 52.544 119.319 56.016C117.116 58.6293 116.015 61.1493 116.015 63.576C116.015 66.0027 116.948 67.4027 118.815 67.776L119.711 67.832C122.809 67.832 125.292 66.5253 127.159 63.912C128.465 62.0453 129.436 60.1413 130.071 58.2C130.743 56.296 131.228 54.7653 131.527 53.608C131.863 52.4507 132.236 50.92 132.647 49.016C133.057 47.1493 133.375 45.5627 133.599 44.256C133.86 42.9493 134.215 41.0827 134.663 38.656C135.148 36.192 135.521 34.2507 135.783 32.832H135.447C130.929 42.2773 127.215 47 124.303 47C121.801 47 120.551 45.376 120.551 42.128C120.551 39.776 121.559 35.0907 123.575 28.072C124.023 26.4667 124.359 25.272 124.583 24.488C124.807 23.6667 125.161 23.256 125.647 23.256C126.319 23.256 126.804 23.7413 127.103 24.712C127.252 25.1227 127.327 25.6453 127.327 26.28C127.327 26.8773 127.233 27.5493 127.047 28.296C126.86 29.0053 126.468 30.3867 125.871 32.44C124.265 37.9653 123.463 41.68 123.463 43.584C123.463 44.816 123.836 45.432 124.583 45.432C125.479 45.432 126.58 44.592 127.887 42.912C129.231 41.232 130.537 39.1787 131.807 36.752C134.121 32.3467 136.007 28.24 137.463 24.432C137.761 23.648 138.135 23.256 138.583 23.256C139.217 23.256 139.684 23.7413 139.983 24.712C140.132 25.2347 140.207 25.8133 140.207 26.448C140.207 27.0827 139.889 28.912 139.255 31.936C138.657 34.96 138.041 37.8533 137.407 40.616C136.809 43.3787 136.007 46.6267 134.999 50.36C134.028 54.0933 133.095 56.8747 132.199 58.704C131.34 60.5333 130.276 62.4 129.007 64.304C127.775 66.208 126.393 67.5147 124.863 68.224C123.332 68.9707 121.615 69.344 119.711 69.344Z"/>
<path d="M147.042 47.056C144.092 47.056 142.618 44.8347 142.618 40.392C142.618 37.816 143.29 34.9973 144.634 31.936C146.5 27.792 148.871 25.0853 151.746 23.816C152.754 23.4053 153.762 23.2 154.77 23.2C155.815 23.2 156.636 23.4987 157.234 24.096C157.831 24.6933 158.13 25.3653 158.13 26.112C158.13 26.448 157.943 26.616 157.57 26.616C157.234 26.5787 157.066 26.392 157.066 26.056C157.066 25.72 156.879 25.4213 156.506 25.16C156.17 24.8613 155.666 24.712 154.994 24.712C152.642 24.712 150.514 26.8213 148.61 31.04C146.818 34.96 145.922 38.6747 145.922 42.184C145.922 44.3493 146.388 45.432 147.322 45.432C148.292 45.432 149.45 44.6293 150.794 43.024C152.175 41.3813 153.444 39.4773 154.602 37.312C157.103 32.7573 158.578 29.8267 159.026 28.52C159.474 27.2133 159.959 26.56 160.482 26.56C161.415 26.56 161.882 27.344 161.882 28.912C161.882 29.3973 161.826 29.9573 161.714 30.592C160.482 36.5653 159.81 40.0187 159.698 40.952C159.623 41.8853 159.586 42.5573 159.586 42.968C159.586 44.76 160.015 45.656 160.874 45.656C161.844 45.656 163.207 44.368 164.962 41.792C166.716 39.216 168.228 36.64 169.498 34.064L171.402 30.2H172.914C172.69 30.648 172.391 31.264 172.018 32.048C171.682 32.7947 170.991 34.1573 169.946 36.136C168.9 38.0773 167.892 39.7947 166.922 41.288C165.988 42.7813 164.924 44.144 163.73 45.376C162.572 46.5707 161.564 47.168 160.706 47.168C157.943 47.168 156.562 45.152 156.562 41.12C156.562 39.776 156.711 38.208 157.01 36.416H156.618C152.81 43.5093 149.618 47.056 147.042 47.056Z"/>
<path d="M206.386 31.544C203.213 30.6853 201.626 28.8747 201.626 26.112C201.626 25.0293 201.906 24.208 202.466 23.648C203.063 23.0507 203.567 22.752 203.978 22.752C204.65 22.752 205.042 22.9573 205.154 23.368L205.21 23.592C204.239 23.592 203.567 24.1333 203.194 25.216C203.082 25.5893 203.026 25.9627 203.026 26.336C203.026 27.3067 203.399 28.1093 204.146 28.744C204.93 29.3787 205.77 29.8267 206.666 30.088C207.935 22.5467 208.757 17.992 209.13 16.424C210.549 10.6747 212.565 7.50133 215.178 6.904C215.514 6.82933 215.85 6.792 216.186 6.792C216.746 6.792 217.119 7.016 217.306 7.464L217.362 7.744C215.794 7.744 214.581 8.60267 213.722 10.32C212.901 12.0373 212.322 13.9413 211.986 16.032C211.687 18.1227 211.463 19.7653 211.314 20.96C211.165 22.1547 210.978 23.7413 210.754 25.72C210.567 27.6613 210.399 29.248 210.25 30.48C214.842 30.3307 218.631 28.296 221.618 24.376C224.119 21.0907 225.37 17.5253 225.37 13.68C225.37 9.34933 223.839 6.232 220.778 4.328C218.986 3.24533 216.802 2.704 214.226 2.704C206.983 2.704 201.477 5.28 197.706 10.432C195.093 13.9413 193.786 17.8613 193.786 22.192C193.786 26.448 194.906 29.4533 197.146 31.208C198.154 32.0293 199.311 32.44 200.618 32.44C200.282 33.2987 199.703 33.728 198.882 33.728C195.746 33.728 193.525 32.1227 192.218 28.912C191.509 27.1947 191.154 25.3467 191.154 23.368C191.154 21.3893 191.49 19.2987 192.162 17.096C193.767 11.8693 196.773 7.81867 201.178 4.944C204.874 2.51733 209.223 1.304 214.226 1.304C220.535 1.304 224.847 3.33867 227.162 7.408C228.245 9.27466 228.786 11.1787 228.786 13.12C228.786 15.0613 228.469 16.984 227.834 18.888C226.415 23.144 223.839 26.504 220.106 28.968C217.082 30.9093 213.741 31.8987 210.082 31.936C208.962 39.8507 207.114 45.3947 204.538 48.568C203.53 49.8373 202.242 50.864 200.674 51.648C199.106 52.432 197.37 52.824 195.466 52.824C193.562 52.824 191.938 52.488 190.594 51.816C189.25 51.144 188.298 50.2853 187.738 49.24C186.879 47.7093 186.45 46.3093 186.45 45.04C186.45 43.7707 186.637 42.5947 187.01 41.512C187.383 40.392 187.925 39.3093 188.634 38.264C189.343 37.1813 190.277 36.304 191.434 35.632C192.591 34.96 193.842 34.624 195.186 34.624C195.97 34.624 196.474 34.8853 196.698 35.408L196.866 35.688C193.618 35.688 191.154 37.0693 189.474 39.832C188.466 41.4373 187.962 43.0427 187.962 44.648C187.962 45.432 188.074 46.1973 188.298 46.944C189.082 49.856 191.117 51.312 194.402 51.312C195.858 51.312 197.183 50.9387 198.378 50.192C199.573 49.4453 200.562 48.4933 201.346 47.336C202.167 46.216 202.914 44.7227 203.586 42.856C204.594 40.056 205.527 36.2853 206.386 31.544Z"/>
<path d="M230.409 38.824C230.409 43.3413 232.014 45.6 235.225 45.6C236.419 45.6 237.67 45.0773 238.977 44.032C240.321 42.9493 241.534 41.6613 242.617 40.168C245.006 36.7333 246.686 33.9333 247.657 31.768L248.385 30.2H249.897C249.262 31.6933 248.329 33.5413 247.097 35.744C245.865 37.9093 244.689 39.7387 243.569 41.232C242.449 42.7253 241.123 44.088 239.593 45.32C238.062 46.5147 236.606 47.112 235.225 47.112C229.699 47.112 226.937 44.0133 226.937 37.816C226.937 34.9413 227.777 32.0667 229.457 29.192C231.771 25.1973 234.627 23.2 238.025 23.2C240.414 23.2 241.609 24.5067 241.609 27.12C241.609 29.0613 240.862 31.0773 239.369 33.168C237.278 36.0053 234.833 37.4427 232.033 37.48C231.622 37.48 231.361 37.2933 231.249 36.92L231.193 36.696C233.134 36.696 234.982 35.4267 236.737 32.888C238.529 30.312 239.425 28.1653 239.425 26.448C239.425 25.2907 238.977 24.712 238.081 24.712C236.102 24.712 234.254 26.448 232.537 29.92C231.118 32.8693 230.409 35.8373 230.409 38.824Z"/>
<path d="M249.755 38.824C249.755 43.3413 251.36 45.6 254.57 45.6C255.765 45.6 257.016 45.0773 258.323 44.032C259.667 42.9493 260.88 41.6613 261.962 40.168C264.352 36.7333 266.032 33.9333 267.003 31.768L267.73 30.2H269.242C268.608 31.6933 267.675 33.5413 266.443 35.744C265.211 37.9093 264.034 39.7387 262.914 41.232C261.794 42.7253 260.469 44.088 258.939 45.32C257.408 46.5147 255.952 47.112 254.57 47.112C249.045 47.112 246.283 44.0133 246.283 37.816C246.283 34.9413 247.123 32.0667 248.803 29.192C251.117 25.1973 253.973 23.2 257.37 23.2C259.76 23.2 260.954 24.5067 260.954 27.12C260.954 29.0613 260.208 31.0773 258.715 33.168C256.624 36.0053 254.178 37.4427 251.378 37.48C250.968 37.48 250.706 37.2933 250.594 36.92L250.538 36.696C252.48 36.696 254.328 35.4267 256.083 32.888C257.875 30.312 258.771 28.1653 258.771 26.448C258.771 25.2907 258.322 24.712 257.426 24.712C255.448 24.712 253.6 26.448 251.882 29.92C250.464 32.8693 249.755 35.8373 249.755 38.824Z"/>
<path d="M278.956 1.36C280.636 1.36 281.476 2.48 281.476 4.72C281.476 5.28 281.42 5.93333 281.308 6.68C280.748 10.2267 279.274 13.8853 276.884 17.656C275.167 20.3813 273.543 22.0987 272.012 22.808C271.266 26.84 270.612 30.4987 270.052 33.784H270.444C273.58 26.8027 276.754 23.312 279.964 23.312C281.122 23.312 282.018 23.6667 282.652 24.376C283.324 25.0853 283.66 26.056 283.66 27.288C283.66 28.52 283.175 31.2267 282.204 35.408C281.234 39.552 280.748 42.4453 280.748 44.088C280.748 46.5147 281.196 47.728 282.092 47.728C282.092 47.9893 281.924 48.2507 281.588 48.512C281.252 48.7733 280.86 48.904 280.412 48.904C278.247 48.904 277.164 47.2053 277.164 43.808C277.164 41.7173 277.706 38.6187 278.788 34.512C279.908 30.368 280.468 27.6987 280.468 26.504C280.468 25.3093 280.002 24.712 279.068 24.712C277.986 24.712 276.791 25.6267 275.484 27.456C274.178 29.2853 272.964 31.6187 271.844 34.456C269.978 39.0107 268.578 42.8187 267.644 45.88C267.42 46.6267 267.103 47 266.692 47C266.02 47 265.516 46.5893 265.18 45.768C264.994 45.32 264.9 44.8533 264.9 44.368C264.9 43.8453 265.05 42.912 265.348 41.568C265.647 40.1867 266.151 37.7787 266.86 34.344C267.532 30.9093 268.111 28.072 268.596 25.832C269.082 23.5547 269.642 21.016 270.276 18.216C270.911 15.3787 271.508 13.0827 272.068 11.328C272.666 9.536 273.338 7.81867 274.084 6.176C275.503 2.96533 277.127 1.36 278.956 1.36ZM280.188 4.832C280.188 3.63733 279.852 2.90933 279.18 2.648C276.978 2.648 274.7 8.808 272.348 21.128C273.842 20.0827 275.391 17.992 276.996 14.856C279.124 10.6373 280.188 7.296 280.188 4.832Z"/>
<path d="M306.293 45.656C307.264 45.656 308.626 44.368 310.381 41.792C312.136 39.216 313.648 36.64 314.917 34.064L316.821 30.2H318.333C318.109 30.648 317.81 31.264 317.437 32.048C317.101 32.7947 316.41 34.1573 315.365 36.136C314.32 38.0773 313.312 39.7947 312.341 41.288C311.408 42.7813 310.344 44.144 309.149 45.376C307.992 46.5707 306.89 47.168 305.845 47.168C304.8 47.168 303.941 46.8507 303.269 46.216C302.448 45.3947 302.037 43.9573 302.037 41.904C302.037 39.8507 302.392 37.144 303.101 33.784H302.709C298.416 42.5947 294.85 47 292.013 47C289.512 47 288.261 45.376 288.261 42.128C288.261 39.776 289.269 35.0907 291.285 28.072C291.733 26.4667 292.069 25.272 292.293 24.488C292.517 23.6667 292.872 23.256 293.357 23.256C294.029 23.256 294.514 23.7413 294.813 24.712C294.962 25.1227 295.037 25.6453 295.037 26.28C295.037 26.8773 294.944 27.5493 294.757 28.296C294.57 29.0053 294.178 30.3867 293.581 32.44C291.976 37.9653 291.173 41.68 291.173 43.584C291.173 44.816 291.546 45.432 292.293 45.432C293.226 45.432 294.328 44.592 295.597 42.912C296.941 41.1573 298.042 39.4587 298.901 37.816C299.76 36.1733 300.45 34.8293 300.973 33.784C301.496 32.7387 302.018 31.656 302.541 30.536C303.064 29.3787 303.474 28.4267 303.773 27.68C304.109 26.9333 304.426 26.224 304.725 25.552C305.024 24.8427 305.173 24.4693 305.173 24.432C305.509 23.648 305.882 23.256 306.293 23.256C306.965 23.256 307.45 23.7413 307.749 24.712C307.898 25.16 307.973 25.7013 307.973 26.336C307.973 26.9707 307.898 27.6427 307.749 28.352C307.6 29.024 307.357 30.032 307.021 31.376C306.685 32.72 306.424 33.8213 306.237 34.68C306.05 35.5387 305.826 36.584 305.565 37.816C305.192 39.8693 305.005 41.6987 305.005 43.304C305.005 44.872 305.434 45.656 306.293 45.656Z"/>
<path d="M40.4454 21.744C44.2161 25.0293 46.1014 29.6773 46.1014 35.688C46.1014 41.4747 44.0854 46.2907 40.0534 50.136C37.5148 52.5627 34.4721 53.776 30.9254 53.776C27.4161 53.776 25.3254 52.208 24.6534 49.072C24.5041 48.3627 24.4294 47.6533 24.4294 46.944C24.4294 44.5173 25.2321 41.8667 26.8374 38.992C28.8908 35.2587 31.5041 32.664 34.6774 31.208C36.1708 30.536 37.6454 30.2 39.1014 30.2C39.3254 30.2 39.4748 30.312 39.5494 30.536C39.6241 30.76 39.6054 30.984 39.4934 31.208C39.4188 31.3947 39.2694 31.488 39.0454 31.488C35.6481 31.488 32.5681 33.28 29.8054 36.864C27.2668 40.1867 25.9974 43.5653 25.9974 47C25.9974 49.688 27.0054 51.3307 29.0214 51.928C29.4694 52.04 29.9734 52.096 30.5334 52.096C32.4748 52.096 34.3041 51.4053 36.0214 50.024C39.2694 47.4107 41.4348 43.1733 42.5174 37.312C42.7041 36.192 42.7974 34.9973 42.7974 33.728C42.7974 32.4213 42.6294 31.0587 42.2934 29.64C41.7334 27.1013 40.6694 24.9547 39.1014 23.2C35.3308 26.896 30.8694 28.744 25.7174 28.744H25.3254C24.3174 37.1067 22.5814 42.856 20.1174 45.992C19.0721 47.2613 17.7281 48.3253 16.0854 49.184C14.4428 50.0427 12.6134 50.472 10.5974 50.472C8.61875 50.472 6.95742 50.136 5.61342 49.464C4.30675 48.792 3.35475 47.9333 2.75742 46.888C1.93609 45.3573 1.52542 43.9573 1.52542 42.688C1.52542 41.4187 1.71209 40.2427 2.08542 39.16C2.45875 38.04 3.00009 36.9573 3.70942 35.912C4.41875 34.8293 5.35209 33.952 6.50942 33.28C7.66675 32.608 8.91742 32.272 10.2614 32.272C11.0081 32.272 11.5308 32.5333 11.8294 33.056L11.9414 33.336C8.69342 33.336 6.21075 34.7173 4.49342 37.48C3.52275 39.048 3.03742 40.6533 3.03742 42.296C3.03742 43.0427 3.13075 43.808 3.31742 44.592C4.13875 47.504 6.19209 48.96 9.47742 48.96C12.2401 48.96 14.4054 47.9147 15.9734 45.824C17.6908 43.6213 18.9228 41.064 19.6694 38.152C20.4908 35.0907 21.2001 31.768 21.7974 28.184C19.8561 27.5493 18.5868 26.5227 17.9894 25.104C17.7654 24.5813 17.6534 23.9653 17.6534 23.256C17.6534 22.5467 17.9894 21.7627 18.6614 20.904C19.6694 19.4853 21.3121 18.496 23.5894 17.936C24.2988 14.6507 25.1761 12.1493 26.2214 10.432C27.2668 8.67733 28.6668 7.8 30.4214 7.8C30.9441 7.8 31.2801 8.024 31.4294 8.472L31.5414 8.752C30.1228 8.752 29.0401 9.51733 28.2934 11.048C27.5468 12.5413 26.9681 14.7067 26.5574 17.544C26.7814 17.5067 27.1361 17.488 27.6214 17.488C31.6534 17.488 35.1628 18.3467 38.1494 20.064C40.1281 17.1147 41.1174 14.1653 41.1174 11.216C41.1174 9.05067 40.3708 7.09067 38.8774 5.336C37.4214 3.58133 35.0134 2.704 31.6534 2.704C24.8588 2.704 19.4828 5.14933 15.5254 10.04C12.5014 13.736 10.9894 17.768 10.9894 22.136C10.9894 25.2347 11.8668 27.3813 13.6214 28.576C14.3681 29.0987 15.2454 29.36 16.2534 29.36C15.8801 30.2187 15.3014 30.648 14.5174 30.648C11.7548 30.648 9.88809 29.2107 8.91742 26.336C8.46942 25.0667 8.24542 23.5547 8.24542 21.8C8.24542 20.008 8.74942 17.88 9.75742 15.416C11.6988 10.5253 14.9654 6.81067 19.5574 4.272C23.1041 2.29333 27.1361 1.304 31.6534 1.304C34.4908 1.304 36.8801 1.752 38.8214 2.648C42.5921 4.36533 44.4774 7.37067 44.4774 11.664C44.4774 15.0987 43.1334 18.4587 40.4454 21.744ZM37.1414 21.464C34.6774 19.672 31.5041 18.776 27.6214 18.776C27.6214 18.776 27.2108 18.7947 26.3894 18.832C26.0534 21.8187 25.7548 24.6373 25.4934 27.288H25.6614C30.2161 27.288 34.0428 25.3467 37.1414 21.464ZM23.3094 19.448C20.6214 20.344 19.2774 21.744 19.2774 23.648C19.2774 25.0293 20.1921 26.056 22.0214 26.728C22.6188 23.0693 23.0481 20.6427 23.3094 19.448Z" fill="#CA3D3D"/>
<path d="M64.9914 1.36C66.6714 1.36 67.5114 2.48 67.5114 4.72C67.5114 5.28 67.4554 5.93333 67.3434 6.68C66.7834 10.2267 65.3087 13.8853 62.9194 17.656C61.202 20.3813 59.578 22.0987 58.0474 22.808C57.3007 26.84 56.6474 30.4987 56.0874 33.784H56.4794C59.6154 26.8027 62.7887 23.312 65.9994 23.312C67.1567 23.312 68.0527 23.6667 68.6874 24.376C69.3594 25.0853 69.6954 26.056 69.6954 27.288C69.6954 28.52 69.21 31.2267 68.2394 35.408C67.2687 39.552 66.7834 42.4453 66.7834 44.088C66.7834 46.5147 67.2314 47.728 68.1274 47.728C68.1274 47.9893 67.9594 48.2507 67.6234 48.512C67.2874 48.7733 66.8954 48.904 66.4474 48.904C64.282 48.904 63.1994 47.2053 63.1994 43.808C63.1994 41.7173 63.7407 38.6187 64.8234 34.512C65.9434 30.368 66.5034 27.6987 66.5034 26.504C66.5034 25.3093 66.0367 24.712 65.1034 24.712C64.0207 24.712 62.826 25.6267 61.5194 27.456C60.2127 29.2853 58.9994 31.6187 57.8794 34.456C56.0127 39.0107 54.6127 42.8187 53.6794 45.88C53.4554 46.6267 53.138 47 52.7274 47C52.0554 47 51.5514 46.5893 51.2154 45.768C51.0287 45.32 50.9354 44.8533 50.9354 44.368C50.9354 43.8453 51.0847 42.912 51.3834 41.568C51.682 40.1867 52.186 37.7787 52.8954 34.344C53.5674 30.9093 54.146 28.072 54.6314 25.832C55.1167 23.5547 55.6767 21.016 56.3114 18.216C56.946 15.3787 57.5434 13.0827 58.1034 11.328C58.7007 9.536 59.3727 7.81867 60.1194 6.176C61.538 2.96533 63.162 1.36 64.9914 1.36ZM66.2234 4.832C66.2234 3.63733 65.8874 2.90933 65.2154 2.648C63.0127 2.648 60.7354 8.808 58.3834 21.128C59.8767 20.0827 61.426 17.992 63.0314 14.856C65.1594 10.6373 66.2234 7.296 66.2234 4.832Z" fill="#CA3D3D"/>
<path d="M78.2721 47.056C75.3228 47.056 73.8481 44.8347 73.8481 40.392C73.8481 37.816 74.5201 34.9973 75.8641 31.936C77.7308 27.792 80.1014 25.0853 82.9761 23.816C83.9841 23.4053 84.9921 23.2 86.0001 23.2C87.0454 23.2 87.8668 23.4987 88.4641 24.096C89.0614 24.6933 89.3601 25.3653 89.3601 26.112C89.3601 26.448 89.1734 26.616 88.8001 26.616C88.4641 26.5787 88.2961 26.392 88.2961 26.056C88.2961 25.72 88.1094 25.4213 87.7361 25.16C87.4001 24.8613 86.8961 24.712 86.2241 24.712C83.8721 24.712 81.7441 26.8213 79.8401 31.04C78.0481 34.96 77.1521 38.6747 77.1521 42.184C77.1521 44.3493 77.6188 45.432 78.5521 45.432C79.5228 45.432 80.6801 44.6293 82.0241 43.024C83.4054 41.3813 84.6748 39.4773 85.8321 37.312C88.3334 32.7573 89.8081 29.8267 90.2561 28.52C90.7041 27.2133 91.1894 26.56 91.7121 26.56C92.6454 26.56 93.1121 27.344 93.1121 28.912C93.1121 29.3973 93.0561 29.9573 92.9441 30.592C91.7121 36.5653 91.0401 40.0187 90.9281 40.952C90.8534 41.8853 90.8161 42.5573 90.8161 42.968C90.8161 44.76 91.2454 45.656 92.1041 45.656C93.0748 45.656 94.4374 44.368 96.1921 41.792C97.9468 39.216 99.4588 36.64 100.728 34.064L102.632 30.2H104.144C103.92 30.648 103.621 31.264 103.248 32.048C102.912 32.7947 102.221 34.1573 101.176 36.136C100.131 38.0773 99.1228 39.7947 98.1521 41.288C97.2188 42.7813 96.1548 44.144 94.9601 45.376C93.8028 46.5707 92.7948 47.168 91.9361 47.168C89.1734 47.168 87.7921 45.152 87.7921 41.12C87.7921 39.776 87.9414 38.208 88.2401 36.416H87.8481C84.0401 43.5093 80.8481 47.056 78.2721 47.056Z" fill="#CA3D3D"/>
<path d="M114.024 22.192C115.629 22.192 116.432 23.7413 116.432 26.84C116.432 27.4 116.395 27.9787 116.32 28.576C116.955 28.7627 117.683 28.856 118.504 28.856C119.325 28.856 120.072 28.5013 120.744 27.792C121.416 27.0827 121.752 26.4293 121.752 25.832C121.752 25.6827 121.845 25.5893 122.032 25.552C122.219 25.4773 122.387 25.4773 122.536 25.552C122.723 25.6267 122.816 25.7387 122.816 25.888C122.816 26.9707 122.349 27.9973 121.416 28.968C120.52 29.9387 119.307 30.424 117.776 30.424C117.179 30.424 116.637 30.368 116.152 30.256C115.181 36.2293 113.24 40.9147 110.328 44.312C108.797 46.104 107.304 47 105.848 47C103.16 47 101.517 46.104 100.92 44.312C100.584 43.3413 100.416 42.3147 100.416 41.232C100.416 40.1493 100.565 38.8613 100.864 37.368C101.349 34.9413 102.357 31.04 103.888 25.664C104.112 24.88 104.467 24.488 104.952 24.488C105.624 24.488 106.109 24.9733 106.408 25.944C106.557 26.3547 106.632 26.8773 106.632 27.512C106.632 28.1093 106.52 28.8373 106.296 29.696C104.877 35.0347 104.075 38.264 103.888 39.384C103.701 40.4667 103.608 41.4 103.608 42.184C103.608 44.3867 104.299 45.488 105.68 45.488C107.696 45.488 109.563 43.808 111.28 40.448C113.035 37.088 114.229 33.5227 114.864 29.752C113.744 29.1547 112.997 28.3707 112.624 27.4C112.288 26.392 112.12 25.6267 112.12 25.104C112.12 24.544 112.195 24.0587 112.344 23.648C112.643 22.6773 113.203 22.192 114.024 22.192Z" fill="#CA3D3D"/>
<path d="M119.711 69.344C116.164 69.344 114.391 67.5333 114.391 63.912C114.391 61.784 115.193 59.488 116.799 57.024C119.113 53.4027 122.212 51.0133 126.095 49.856C127.476 49.4453 128.913 49.24 130.407 49.24C130.668 49.24 130.799 49.5013 130.799 50.024C130.799 50.5467 130.668 50.808 130.407 50.808C126.001 50.808 122.305 52.544 119.319 56.016C117.116 58.6293 116.015 61.1493 116.015 63.576C116.015 66.0027 116.948 67.4027 118.815 67.776L119.711 67.832C122.809 67.832 125.292 66.5253 127.159 63.912C128.465 62.0453 129.436 60.1413 130.071 58.2C130.743 56.296 131.228 54.7653 131.527 53.608C131.863 52.4507 132.236 50.92 132.647 49.016C133.057 47.1493 133.375 45.5627 133.599 44.256C133.86 42.9493 134.215 41.0827 134.663 38.656C135.148 36.192 135.521 34.2507 135.783 32.832H135.447C130.929 42.2773 127.215 47 124.303 47C121.801 47 120.551 45.376 120.551 42.128C120.551 39.776 121.559 35.0907 123.575 28.072C124.023 26.4667 124.359 25.272 124.583 24.488C124.807 23.6667 125.161 23.256 125.647 23.256C126.319 23.256 126.804 23.7413 127.103 24.712C127.252 25.1227 127.327 25.6453 127.327 26.28C127.327 26.8773 127.233 27.5493 127.047 28.296C126.86 29.0053 126.468 30.3867 125.871 32.44C124.265 37.9653 123.463 41.68 123.463 43.584C123.463 44.816 123.836 45.432 124.583 45.432C125.479 45.432 126.58 44.592 127.887 42.912C129.231 41.232 130.537 39.1787 131.807 36.752C134.121 32.3467 136.007 28.24 137.463 24.432C137.761 23.648 138.135 23.256 138.583 23.256C139.217 23.256 139.684 23.7413 139.983 24.712C140.132 25.2347 140.207 25.8133 140.207 26.448C140.207 27.0827 139.889 28.912 139.255 31.936C138.657 34.96 138.041 37.8533 137.407 40.616C136.809 43.3787 136.007 46.6267 134.999 50.36C134.028 54.0933 133.095 56.8747 132.199 58.704C131.34 60.5333 130.276 62.4 129.007 64.304C127.775 66.208 126.393 67.5147 124.863 68.224C123.332 68.9707 121.615 69.344 119.711 69.344Z" fill="#CA3D3D"/>
<path d="M147.042 47.056C144.092 47.056 142.618 44.8347 142.618 40.392C142.618 37.816 143.29 34.9973 144.634 31.936C146.5 27.792 148.871 25.0853 151.746 23.816C152.754 23.4053 153.762 23.2 154.77 23.2C155.815 23.2 156.636 23.4987 157.234 24.096C157.831 24.6933 158.13 25.3653 158.13 26.112C158.13 26.448 157.943 26.616 157.57 26.616C157.234 26.5787 157.066 26.392 157.066 26.056C157.066 25.72 156.879 25.4213 156.506 25.16C156.17 24.8613 155.666 24.712 154.994 24.712C152.642 24.712 150.514 26.8213 148.61 31.04C146.818 34.96 145.922 38.6747 145.922 42.184C145.922 44.3493 146.388 45.432 147.322 45.432C148.292 45.432 149.45 44.6293 150.794 43.024C152.175 41.3813 153.444 39.4773 154.602 37.312C157.103 32.7573 158.578 29.8267 159.026 28.52C159.474 27.2133 159.959 26.56 160.482 26.56C161.415 26.56 161.882 27.344 161.882 28.912C161.882 29.3973 161.826 29.9573 161.714 30.592C160.482 36.5653 159.81 40.0187 159.698 40.952C159.623 41.8853 159.586 42.5573 159.586 42.968C159.586 44.76 160.015 45.656 160.874 45.656C161.844 45.656 163.207 44.368 164.962 41.792C166.716 39.216 168.228 36.64 169.498 34.064L171.402 30.2H172.914C172.69 30.648 172.391 31.264 172.018 32.048C171.682 32.7947 170.991 34.1573 169.946 36.136C168.9 38.0773 167.892 39.7947 166.922 41.288C165.988 42.7813 164.924 44.144 163.73 45.376C162.572 46.5707 161.564 47.168 160.706 47.168C157.943 47.168 156.562 45.152 156.562 41.12C156.562 39.776 156.711 38.208 157.01 36.416H156.618C152.81 43.5093 149.618 47.056 147.042 47.056Z" fill="#CA3D3D"/>
<path d="M206.386 31.544C203.213 30.6853 201.626 28.8747 201.626 26.112C201.626 25.0293 201.906 24.208 202.466 23.648C203.063 23.0507 203.567 22.752 203.978 22.752C204.65 22.752 205.042 22.9573 205.154 23.368L205.21 23.592C204.239 23.592 203.567 24.1333 203.194 25.216C203.082 25.5893 203.026 25.9627 203.026 26.336C203.026 27.3067 203.399 28.1093 204.146 28.744C204.93 29.3787 205.77 29.8267 206.666 30.088C207.935 22.5467 208.757 17.992 209.13 16.424C210.549 10.6747 212.565 7.50133 215.178 6.904C215.514 6.82933 215.85 6.792 216.186 6.792C216.746 6.792 217.119 7.016 217.306 7.464L217.362 7.744C215.794 7.744 214.581 8.60267 213.722 10.32C212.901 12.0373 212.322 13.9413 211.986 16.032C211.687 18.1227 211.463 19.7653 211.314 20.96C211.165 22.1547 210.978 23.7413 210.754 25.72C210.567 27.6613 210.399 29.248 210.25 30.48C214.842 30.3307 218.631 28.296 221.618 24.376C224.119 21.0907 225.37 17.5253 225.37 13.68C225.37 9.34933 223.839 6.232 220.778 4.328C218.986 3.24533 216.802 2.704 214.226 2.704C206.983 2.704 201.477 5.28 197.706 10.432C195.093 13.9413 193.786 17.8613 193.786 22.192C193.786 26.448 194.906 29.4533 197.146 31.208C198.154 32.0293 199.311 32.44 200.618 32.44C200.282 33.2987 199.703 33.728 198.882 33.728C195.746 33.728 193.525 32.1227 192.218 28.912C191.509 27.1947 191.154 25.3467 191.154 23.368C191.154 21.3893 191.49 19.2987 192.162 17.096C193.767 11.8693 196.773 7.81867 201.178 4.944C204.874 2.51733 209.223 1.304 214.226 1.304C220.535 1.304 224.847 3.33867 227.162 7.408C228.245 9.27466 228.786 11.1787 228.786 13.12C228.786 15.0613 228.469 16.984 227.834 18.888C226.415 23.144 223.839 26.504 220.106 28.968C217.082 30.9093 213.741 31.8987 210.082 31.936C208.962 39.8507 207.114 45.3947 204.538 48.568C203.53 49.8373 202.242 50.864 200.674 51.648C199.106 52.432 197.37 52.824 195.466 52.824C193.562 52.824 191.938 52.488 190.594 51.816C189.25 51.144 188.298 50.2853 187.738 49.24C186.879 47.7093 186.45 46.3093 186.45 45.04C186.45 43.7707 186.637 42.5947 187.01 41.512C187.383 40.392 187.925 39.3093 188.634 38.264C189.343 37.1813 190.277 36.304 191.434 35.632C192.591 34.96 193.842 34.624 195.186 34.624C195.97 34.624 196.474 34.8853 196.698 35.408L196.866 35.688C193.618 35.688 191.154 37.0693 189.474 39.832C188.466 41.4373 187.962 43.0427 187.962 44.648C187.962 45.432 188.074 46.1973 188.298 46.944C189.082 49.856 191.117 51.312 194.402 51.312C195.858 51.312 197.183 50.9387 198.378 50.192C199.573 49.4453 200.562 48.4933 201.346 47.336C202.167 46.216 202.914 44.7227 203.586 42.856C204.594 40.056 205.527 36.2853 206.386 31.544Z" fill="#CA3D3D"/>
<path d="M230.409 38.824C230.409 43.3413 232.014 45.6 235.225 45.6C236.419 45.6 237.67 45.0773 238.977 44.032C240.321 42.9493 241.534 41.6613 242.617 40.168C245.006 36.7333 246.686 33.9333 247.657 31.768L248.385 30.2H249.897C249.262 31.6933 248.329 33.5413 247.097 35.744C245.865 37.9093 244.689 39.7387 243.569 41.232C242.449 42.7253 241.123 44.088 239.593 45.32C238.062 46.5147 236.606 47.112 235.225 47.112C229.699 47.112 226.937 44.0133 226.937 37.816C226.937 34.9413 227.777 32.0667 229.457 29.192C231.771 25.1973 234.627 23.2 238.025 23.2C240.414 23.2 241.609 24.5067 241.609 27.12C241.609 29.0613 240.862 31.0773 239.369 33.168C237.278 36.0053 234.833 37.4427 232.033 37.48C231.622 37.48 231.361 37.2933 231.249 36.92L231.193 36.696C233.134 36.696 234.982 35.4267 236.737 32.888C238.529 30.312 239.425 28.1653 239.425 26.448C239.425 25.2907 238.977 24.712 238.081 24.712C236.102 24.712 234.254 26.448 232.537 29.92C231.118 32.8693 230.409 35.8373 230.409 38.824Z" fill="#CA3D3D"/>
<path d="M249.755 38.824C249.755 43.3413 251.36 45.6 254.57 45.6C255.765 45.6 257.016 45.0773 258.323 44.032C259.667 42.9493 260.88 41.6613 261.962 40.168C264.352 36.7333 266.032 33.9333 267.003 31.768L267.73 30.2H269.242C268.608 31.6933 267.675 33.5413 266.443 35.744C265.211 37.9093 264.034 39.7387 262.914 41.232C261.794 42.7253 260.469 44.088 258.939 45.32C257.408 46.5147 255.952 47.112 254.57 47.112C249.045 47.112 246.283 44.0133 246.283 37.816C246.283 34.9413 247.123 32.0667 248.803 29.192C251.117 25.1973 253.973 23.2 257.37 23.2C259.76 23.2 260.954 24.5067 260.954 27.12C260.954 29.0613 260.208 31.0773 258.715 33.168C256.624 36.0053 254.178 37.4427 251.378 37.48C250.968 37.48 250.706 37.2933 250.594 36.92L250.538 36.696C252.48 36.696 254.328 35.4267 256.083 32.888C257.875 30.312 258.771 28.1653 258.771 26.448C258.771 25.2907 258.322 24.712 257.426 24.712C255.448 24.712 253.6 26.448 251.882 29.92C250.464 32.8693 249.755 35.8373 249.755 38.824Z" fill="#CA3D3D"/>
<path d="M278.956 1.36C280.636 1.36 281.476 2.48 281.476 4.72C281.476 5.28 281.42 5.93333 281.308 6.68C280.748 10.2267 279.274 13.8853 276.884 17.656C275.167 20.3813 273.543 22.0987 272.012 22.808C271.266 26.84 270.612 30.4987 270.052 33.784H270.444C273.58 26.8027 276.754 23.312 279.964 23.312C281.122 23.312 282.018 23.6667 282.652 24.376C283.324 25.0853 283.66 26.056 283.66 27.288C283.66 28.52 283.175 31.2267 282.204 35.408C281.234 39.552 280.748 42.4453 280.748 44.088C280.748 46.5147 281.196 47.728 282.092 47.728C282.092 47.9893 281.924 48.2507 281.588 48.512C281.252 48.7733 280.86 48.904 280.412 48.904C278.247 48.904 277.164 47.2053 277.164 43.808C277.164 41.7173 277.706 38.6187 278.788 34.512C279.908 30.368 280.468 27.6987 280.468 26.504C280.468 25.3093 280.002 24.712 279.068 24.712C277.986 24.712 276.791 25.6267 275.484 27.456C274.178 29.2853 272.964 31.6187 271.844 34.456C269.978 39.0107 268.578 42.8187 267.644 45.88C267.42 46.6267 267.103 47 266.692 47C266.02 47 265.516 46.5893 265.18 45.768C264.994 45.32 264.9 44.8533 264.9 44.368C264.9 43.8453 265.05 42.912 265.348 41.568C265.647 40.1867 266.151 37.7787 266.86 34.344C267.532 30.9093 268.111 28.072 268.596 25.832C269.082 23.5547 269.642 21.016 270.276 18.216C270.911 15.3787 271.508 13.0827 272.068 11.328C272.666 9.536 273.338 7.81867 274.084 6.176C275.503 2.96533 277.127 1.36 278.956 1.36ZM280.188 4.832C280.188 3.63733 279.852 2.90933 279.18 2.648C276.978 2.648 274.7 8.808 272.348 21.128C273.842 20.0827 275.391 17.992 276.996 14.856C279.124 10.6373 280.188 7.296 280.188 4.832Z" fill="#CA3D3D"/>
<path d="M306.293 45.656C307.264 45.656 308.626 44.368 310.381 41.792C312.136 39.216 313.648 36.64 314.917 34.064L316.821 30.2H318.333C318.109 30.648 317.81 31.264 317.437 32.048C317.101 32.7947 316.41 34.1573 315.365 36.136C314.32 38.0773 313.312 39.7947 312.341 41.288C311.408 42.7813 310.344 44.144 309.149 45.376C307.992 46.5707 306.89 47.168 305.845 47.168C304.8 47.168 303.941 46.8507 303.269 46.216C302.448 45.3947 302.037 43.9573 302.037 41.904C302.037 39.8507 302.392 37.144 303.101 33.784H302.709C298.416 42.5947 294.85 47 292.013 47C289.512 47 288.261 45.376 288.261 42.128C288.261 39.776 289.269 35.0907 291.285 28.072C291.733 26.4667 292.069 25.272 292.293 24.488C292.517 23.6667 292.872 23.256 293.357 23.256C294.029 23.256 294.514 23.7413 294.813 24.712C294.962 25.1227 295.037 25.6453 295.037 26.28C295.037 26.8773 294.944 27.5493 294.757 28.296C294.57 29.0053 294.178 30.3867 293.581 32.44C291.976 37.9653 291.173 41.68 291.173 43.584C291.173 44.816 291.546 45.432 292.293 45.432C293.226 45.432 294.328 44.592 295.597 42.912C296.941 41.1573 298.042 39.4587 298.901 37.816C299.76 36.1733 300.45 34.8293 300.973 33.784C301.496 32.7387 302.018 31.656 302.541 30.536C303.064 29.3787 303.474 28.4267 303.773 27.68C304.109 26.9333 304.426 26.224 304.725 25.552C305.024 24.8427 305.173 24.4693 305.173 24.432C305.509 23.648 305.882 23.256 306.293 23.256C306.965 23.256 307.45 23.7413 307.749 24.712C307.898 25.16 307.973 25.7013 307.973 26.336C307.973 26.9707 307.898 27.6427 307.749 28.352C307.6 29.024 307.357 30.032 307.021 31.376C306.685 32.72 306.424 33.8213 306.237 34.68C306.05 35.5387 305.826 36.584 305.565 37.816C305.192 39.8693 305.005 41.6987 305.005 43.304C305.005 44.872 305.434 45.656 306.293 45.656Z" fill="#CA3D3D"/>
<path d="M40.4454 21.744C44.2161 25.0293 46.1014 29.6773 46.1014 35.688C46.1014 41.4747 44.0854 46.2907 40.0534 50.136C37.5148 52.5627 34.4721 53.776 30.9254 53.776C27.4161 53.776 25.3254 52.208 24.6534 49.072C24.5041 48.3627 24.4294 47.6533 24.4294 46.944C24.4294 44.5173 25.2321 41.8667 26.8374 38.992C28.8908 35.2587 31.5041 32.664 34.6774 31.208C36.1708 30.536 37.6454 30.2 39.1014 30.2C39.3254 30.2 39.4748 30.312 39.5494 30.536C39.6241 30.76 39.6054 30.984 39.4934 31.208C39.4188 31.3947 39.2694 31.488 39.0454 31.488C35.6481 31.488 32.5681 33.28 29.8054 36.864C27.2668 40.1867 25.9974 43.5653 25.9974 47C25.9974 49.688 27.0054 51.3307 29.0214 51.928C29.4694 52.04 29.9734 52.096 30.5334 52.096C32.4748 52.096 34.3041 51.4053 36.0214 50.024C39.2694 47.4107 41.4348 43.1733 42.5174 37.312C42.7041 36.192 42.7974 34.9973 42.7974 33.728C42.7974 32.4213 42.6294 31.0587 42.2934 29.64C41.7334 27.1013 40.6694 24.9547 39.1014 23.2C35.3308 26.896 30.8694 28.744 25.7174 28.744H25.3254C24.3174 37.1067 22.5814 42.856 20.1174 45.992C19.0721 47.2613 17.7281 48.3253 16.0854 49.184C14.4428 50.0427 12.6134 50.472 10.5974 50.472C8.61875 50.472 6.95742 50.136 5.61342 49.464C4.30675 48.792 3.35475 47.9333 2.75742 46.888C1.93609 45.3573 1.52542 43.9573 1.52542 42.688C1.52542 41.4187 1.71209 40.2427 2.08542 39.16C2.45875 38.04 3.00009 36.9573 3.70942 35.912C4.41875 34.8293 5.35209 33.952 6.50942 33.28C7.66675 32.608 8.91742 32.272 10.2614 32.272C11.0081 32.272 11.5308 32.5333 11.8294 33.056L11.9414 33.336C8.69342 33.336 6.21075 34.7173 4.49342 37.48C3.52275 39.048 3.03742 40.6533 3.03742 42.296C3.03742 43.0427 3.13075 43.808 3.31742 44.592C4.13875 47.504 6.19209 48.96 9.47742 48.96C12.2401 48.96 14.4054 47.9147 15.9734 45.824C17.6908 43.6213 18.9228 41.064 19.6694 38.152C20.4908 35.0907 21.2001 31.768 21.7974 28.184C19.8561 27.5493 18.5868 26.5227 17.9894 25.104C17.7654 24.5813 17.6534 23.9653 17.6534 23.256C17.6534 22.5467 17.9894 21.7627 18.6614 20.904C19.6694 19.4853 21.3121 18.496 23.5894 17.936C24.2988 14.6507 25.1761 12.1493 26.2214 10.432C27.2668 8.67733 28.6668 7.8 30.4214 7.8C30.9441 7.8 31.2801 8.024 31.4294 8.472L31.5414 8.752C30.1228 8.752 29.0401 9.51733 28.2934 11.048C27.5468 12.5413 26.9681 14.7067 26.5574 17.544C26.7814 17.5067 27.1361 17.488 27.6214 17.488C31.6534 17.488 35.1628 18.3467 38.1494 20.064C40.1281 17.1147 41.1174 14.1653 41.1174 11.216C41.1174 9.05067 40.3708 7.09067 38.8774 5.336C37.4214 3.58133 35.0134 2.704 31.6534 2.704C24.8588 2.704 19.4828 5.14933 15.5254 10.04C12.5014 13.736 10.9894 17.768 10.9894 22.136C10.9894 25.2347 11.8668 27.3813 13.6214 28.576C14.3681 29.0987 15.2454 29.36 16.2534 29.36C15.8801 30.2187 15.3014 30.648 14.5174 30.648C11.7548 30.648 9.88809 29.2107 8.91742 26.336C8.46942 25.0667 8.24542 23.5547 8.24542 21.8C8.24542 20.008 8.74942 17.88 9.75742 15.416C11.6988 10.5253 14.9654 6.81067 19.5574 4.272C23.1041 2.29333 27.1361 1.304 31.6534 1.304C34.4908 1.304 36.8801 1.752 38.8214 2.648C42.5921 4.36533 44.4774 7.37067 44.4774 11.664C44.4774 15.0987 43.1334 18.4587 40.4454 21.744ZM37.1414 21.464C34.6774 19.672 31.5041 18.776 27.6214 18.776C27.6214 18.776 27.2108 18.7947 26.3894 18.832C26.0534 21.8187 25.7548 24.6373 25.4934 27.288H25.6614C30.2161 27.288 34.0428 25.3467 37.1414 21.464ZM23.3094 19.448C20.6214 20.344 19.2774 21.744 19.2774 23.648C19.2774 25.0293 20.1921 26.056 22.0214 26.728C22.6188 23.0693 23.0481 20.6427 23.3094 19.448Z" stroke="#CA3D3D" stroke-width="2"/>
<path d="M64.9914 1.36C66.6714 1.36 67.5114 2.48 67.5114 4.72C67.5114 5.28 67.4554 5.93333 67.3434 6.68C66.7834 10.2267 65.3087 13.8853 62.9194 17.656C61.202 20.3813 59.578 22.0987 58.0474 22.808C57.3007 26.84 56.6474 30.4987 56.0874 33.784H56.4794C59.6154 26.8027 62.7887 23.312 65.9994 23.312C67.1567 23.312 68.0527 23.6667 68.6874 24.376C69.3594 25.0853 69.6954 26.056 69.6954 27.288C69.6954 28.52 69.21 31.2267 68.2394 35.408C67.2687 39.552 66.7834 42.4453 66.7834 44.088C66.7834 46.5147 67.2314 47.728 68.1274 47.728C68.1274 47.9893 67.9594 48.2507 67.6234 48.512C67.2874 48.7733 66.8954 48.904 66.4474 48.904C64.282 48.904 63.1994 47.2053 63.1994 43.808C63.1994 41.7173 63.7407 38.6187 64.8234 34.512C65.9434 30.368 66.5034 27.6987 66.5034 26.504C66.5034 25.3093 66.0367 24.712 65.1034 24.712C64.0207 24.712 62.826 25.6267 61.5194 27.456C60.2127 29.2853 58.9994 31.6187 57.8794 34.456C56.0127 39.0107 54.6127 42.8187 53.6794 45.88C53.4554 46.6267 53.138 47 52.7274 47C52.0554 47 51.5514 46.5893 51.2154 45.768C51.0287 45.32 50.9354 44.8533 50.9354 44.368C50.9354 43.8453 51.0847 42.912 51.3834 41.568C51.682 40.1867 52.186 37.7787 52.8954 34.344C53.5674 30.9093 54.146 28.072 54.6314 25.832C55.1167 23.5547 55.6767 21.016 56.3114 18.216C56.946 15.3787 57.5434 13.0827 58.1034 11.328C58.7007 9.536 59.3727 7.81867 60.1194 6.176C61.538 2.96533 63.162 1.36 64.9914 1.36ZM66.2234 4.832C66.2234 3.63733 65.8874 2.90933 65.2154 2.648C63.0127 2.648 60.7354 8.808 58.3834 21.128C59.8767 20.0827 61.426 17.992 63.0314 14.856C65.1594 10.6373 66.2234 7.296 66.2234 4.832Z" stroke="#CA3D3D" stroke-width="2"/>
<path d="M78.2721 47.056C75.3228 47.056 73.8481 44.8347 73.8481 40.392C73.8481 37.816 74.5201 34.9973 75.8641 31.936C77.7308 27.792 80.1014 25.0853 82.9761 23.816C83.9841 23.4053 84.9921 23.2 86.0001 23.2C87.0454 23.2 87.8668 23.4987 88.4641 24.096C89.0614 24.6933 89.3601 25.3653 89.3601 26.112C89.3601 26.448 89.1734 26.616 88.8001 26.616C88.4641 26.5787 88.2961 26.392 88.2961 26.056C88.2961 25.72 88.1094 25.4213 87.7361 25.16C87.4001 24.8613 86.8961 24.712 86.2241 24.712C83.8721 24.712 81.7441 26.8213 79.8401 31.04C78.0481 34.96 77.1521 38.6747 77.1521 42.184C77.1521 44.3493 77.6188 45.432 78.5521 45.432C79.5228 45.432 80.6801 44.6293 82.0241 43.024C83.4054 41.3813 84.6748 39.4773 85.8321 37.312C88.3334 32.7573 89.8081 29.8267 90.2561 28.52C90.7041 27.2133 91.1894 26.56 91.7121 26.56C92.6454 26.56 93.1121 27.344 93.1121 28.912C93.1121 29.3973 93.0561 29.9573 92.9441 30.592C91.7121 36.5653 91.0401 40.0187 90.9281 40.952C90.8534 41.8853 90.8161 42.5573 90.8161 42.968C90.8161 44.76 91.2454 45.656 92.1041 45.656C93.0748 45.656 94.4374 44.368 96.1921 41.792C97.9468 39.216 99.4588 36.64 100.728 34.064L102.632 30.2H104.144C103.92 30.648 103.621 31.264 103.248 32.048C102.912 32.7947 102.221 34.1573 101.176 36.136C100.131 38.0773 99.1228 39.7947 98.1521 41.288C97.2188 42.7813 96.1548 44.144 94.9601 45.376C93.8028 46.5707 92.7948 47.168 91.9361 47.168C89.1734 47.168 87.7921 45.152 87.7921 41.12C87.7921 39.776 87.9414 38.208 88.2401 36.416H87.8481C84.0401 43.5093 80.8481 47.056 78.2721 47.056Z" stroke="#CA3D3D" stroke-width="2"/>
<path d="M114.024 22.192C115.629 22.192 116.432 23.7413 116.432 26.84C116.432 27.4 116.395 27.9787 116.32 28.576C116.955 28.7627 117.683 28.856 118.504 28.856C119.325 28.856 120.072 28.5013 120.744 27.792C121.416 27.0827 121.752 26.4293 121.752 25.832C121.752 25.6827 121.845 25.5893 122.032 25.552C122.219 25.4773 122.387 25.4773 122.536 25.552C122.723 25.6267 122.816 25.7387 122.816 25.888C122.816 26.9707 122.349 27.9973 121.416 28.968C120.52 29.9387 119.307 30.424 117.776 30.424C117.179 30.424 116.637 30.368 116.152 30.256C115.181 36.2293 113.24 40.9147 110.328 44.312C108.797 46.104 107.304 47 105.848 47C103.16 47 101.517 46.104 100.92 44.312C100.584 43.3413 100.416 42.3147 100.416 41.232C100.416 40.1493 100.565 38.8613 100.864 37.368C101.349 34.9413 102.357 31.04 103.888 25.664C104.112 24.88 104.467 24.488 104.952 24.488C105.624 24.488 106.109 24.9733 106.408 25.944C106.557 26.3547 106.632 26.8773 106.632 27.512C106.632 28.1093 106.52 28.8373 106.296 29.696C104.877 35.0347 104.075 38.264 103.888 39.384C103.701 40.4667 103.608 41.4 103.608 42.184C103.608 44.3867 104.299 45.488 105.68 45.488C107.696 45.488 109.563 43.808 111.28 40.448C113.035 37.088 114.229 33.5227 114.864 29.752C113.744 29.1547 112.997 28.3707 112.624 27.4C112.288 26.392 112.12 25.6267 112.12 25.104C112.12 24.544 112.195 24.0587 112.344 23.648C112.643 22.6773 113.203 22.192 114.024 22.192Z" stroke="#CA3D3D" stroke-width="2"/>
<path d="M119.711 69.344C116.164 69.344 114.391 67.5333 114.391 63.912C114.391 61.784 115.193 59.488 116.799 57.024C119.113 53.4027 122.212 51.0133 126.095 49.856C127.476 49.4453 128.913 49.24 130.407 49.24C130.668 49.24 130.799 49.5013 130.799 50.024C130.799 50.5467 130.668 50.808 130.407 50.808C126.001 50.808 122.305 52.544 119.319 56.016C117.116 58.6293 116.015 61.1493 116.015 63.576C116.015 66.0027 116.948 67.4027 118.815 67.776L119.711 67.832C122.809 67.832 125.292 66.5253 127.159 63.912C128.465 62.0453 129.436 60.1413 130.071 58.2C130.743 56.296 131.228 54.7653 131.527 53.608C131.863 52.4507 132.236 50.92 132.647 49.016C133.057 47.1493 133.375 45.5627 133.599 44.256C133.86 42.9493 134.215 41.0827 134.663 38.656C135.148 36.192 135.521 34.2507 135.783 32.832H135.447C130.929 42.2773 127.215 47 124.303 47C121.801 47 120.551 45.376 120.551 42.128C120.551 39.776 121.559 35.0907 123.575 28.072C124.023 26.4667 124.359 25.272 124.583 24.488C124.807 23.6667 125.161 23.256 125.647 23.256C126.319 23.256 126.804 23.7413 127.103 24.712C127.252 25.1227 127.327 25.6453 127.327 26.28C127.327 26.8773 127.233 27.5493 127.047 28.296C126.86 29.0053 126.468 30.3867 125.871 32.44C124.265 37.9653 123.463 41.68 123.463 43.584C123.463 44.816 123.836 45.432 124.583 45.432C125.479 45.432 126.58 44.592 127.887 42.912C129.231 41.232 130.537 39.1787 131.807 36.752C134.121 32.3467 136.007 28.24 137.463 24.432C137.761 23.648 138.135 23.256 138.583 23.256C139.217 23.256 139.684 23.7413 139.983 24.712C140.132 25.2347 140.207 25.8133 140.207 26.448C140.207 27.0827 139.889 28.912 139.255 31.936C138.657 34.96 138.041 37.8533 137.407 40.616C136.809 43.3787 136.007 46.6267 134.999 50.36C134.028 54.0933 133.095 56.8747 132.199 58.704C131.34 60.5333 130.276 62.4 129.007 64.304C127.775 66.208 126.393 67.5147 124.863 68.224C123.332 68.9707 121.615 69.344 119.711 69.344Z" stroke="#CA3D3D" stroke-width="2" />
<path d="M147.042 47.056C144.092 47.056 142.618 44.8347 142.618 40.392C142.618 37.816 143.29 34.9973 144.634 31.936C146.5 27.792 148.871 25.0853 151.746 23.816C152.754 23.4053 153.762 23.2 154.77 23.2C155.815 23.2 156.636 23.4987 157.234 24.096C157.831 24.6933 158.13 25.3653 158.13 26.112C158.13 26.448 157.943 26.616 157.57 26.616C157.234 26.5787 157.066 26.392 157.066 26.056C157.066 25.72 156.879 25.4213 156.506 25.16C156.17 24.8613 155.666 24.712 154.994 24.712C152.642 24.712 150.514 26.8213 148.61 31.04C146.818 34.96 145.922 38.6747 145.922 42.184C145.922 44.3493 146.388 45.432 147.322 45.432C148.292 45.432 149.45 44.6293 150.794 43.024C152.175 41.3813 153.444 39.4773 154.602 37.312C157.103 32.7573 158.578 29.8267 159.026 28.52C159.474 27.2133 159.959 26.56 160.482 26.56C161.415 26.56 161.882 27.344 161.882 28.912C161.882 29.3973 161.826 29.9573 161.714 30.592C160.482 36.5653 159.81 40.0187 159.698 40.952C159.623 41.8853 159.586 42.5573 159.586 42.968C159.586 44.76 160.015 45.656 160.874 45.656C161.844 45.656 163.207 44.368 164.962 41.792C166.716 39.216 168.228 36.64 169.498 34.064L171.402 30.2H172.914C172.69 30.648 172.391 31.264 172.018 32.048C171.682 32.7947 170.991 34.1573 169.946 36.136C168.9 38.0773 167.892 39.7947 166.922 41.288C165.988 42.7813 164.924 44.144 163.73 45.376C162.572 46.5707 161.564 47.168 160.706 47.168C157.943 47.168 156.562 45.152 156.562 41.12C156.562 39.776 156.711 38.208 157.01 36.416H156.618C152.81 43.5093 149.618 47.056 147.042 47.056Z" stroke="#CA3D3D" stroke-width="2"/>
<path d="M206.386 31.544C203.213 30.6853 201.626 28.8747 201.626 26.112C201.626 25.0293 201.906 24.208 202.466 23.648C203.063 23.0507 203.567 22.752 203.978 22.752C204.65 22.752 205.042 22.9573 205.154 23.368L205.21 23.592C204.239 23.592 203.567 24.1333 203.194 25.216C203.082 25.5893 203.026 25.9627 203.026 26.336C203.026 27.3067 203.399 28.1093 204.146 28.744C204.93 29.3787 205.77 29.8267 206.666 30.088C207.935 22.5467 208.757 17.992 209.13 16.424C210.549 10.6747 212.565 7.50133 215.178 6.904C215.514 6.82933 215.85 6.792 216.186 6.792C216.746 6.792 217.119 7.016 217.306 7.464L217.362 7.744C215.794 7.744 214.581 8.60267 213.722 10.32C212.901 12.0373 212.322 13.9413 211.986 16.032C211.687 18.1227 211.463 19.7653 211.314 20.96C211.165 22.1547 210.978 23.7413 210.754 25.72C210.567 27.6613 210.399 29.248 210.25 30.48C214.842 30.3307 218.631 28.296 221.618 24.376C224.119 21.0907 225.37 17.5253 225.37 13.68C225.37 9.34933 223.839 6.232 220.778 4.328C218.986 3.24533 216.802 2.704 214.226 2.704C206.983 2.704 201.477 5.28 197.706 10.432C195.093 13.9413 193.786 17.8613 193.786 22.192C193.786 26.448 194.906 29.4533 197.146 31.208C198.154 32.0293 199.311 32.44 200.618 32.44C200.282 33.2987 199.703 33.728 198.882 33.728C195.746 33.728 193.525 32.1227 192.218 28.912C191.509 27.1947 191.154 25.3467 191.154 23.368C191.154 21.3893 191.49 19.2987 192.162 17.096C193.767 11.8693 196.773 7.81867 201.178 4.944C204.874 2.51733 209.223 1.304 214.226 1.304C220.535 1.304 224.847 3.33867 227.162 7.408C228.245 9.27466 228.786 11.1787 228.786 13.12C228.786 15.0613 228.469 16.984 227.834 18.888C226.415 23.144 223.839 26.504 220.106 28.968C217.082 30.9093 213.741 31.8987 210.082 31.936C208.962 39.8507 207.114 45.3947 204.538 48.568C203.53 49.8373 202.242 50.864 200.674 51.648C199.106 52.432 197.37 52.824 195.466 52.824C193.562 52.824 191.938 52.488 190.594 51.816C189.25 51.144 188.298 50.2853 187.738 49.24C186.879 47.7093 186.45 46.3093 186.45 45.04C186.45 43.7707 186.637 42.5947 187.01 41.512C187.383 40.392 187.925 39.3093 188.634 38.264C189.343 37.1813 190.277 36.304 191.434 35.632C192.591 34.96 193.842 34.624 195.186 34.624C195.97 34.624 196.474 34.8853 196.698 35.408L196.866 35.688C193.618 35.688 191.154 37.0693 189.474 39.832C188.466 41.4373 187.962 43.0427 187.962 44.648C187.962 45.432 188.074 46.1973 188.298 46.944C189.082 49.856 191.117 51.312 194.402 51.312C195.858 51.312 197.183 50.9387 198.378 50.192C199.573 49.4453 200.562 48.4933 201.346 47.336C202.167 46.216 202.914 44.7227 203.586 42.856C204.594 40.056 205.527 36.2853 206.386 31.544Z" stroke="#CA3D3D" stroke-width="2" />
<path d="M230.409 38.824C230.409 43.3413 232.014 45.6 235.225 45.6C236.419 45.6 237.67 45.0773 238.977 44.032C240.321 42.9493 241.534 41.6613 242.617 40.168C245.006 36.7333 246.686 33.9333 247.657 31.768L248.385 30.2H249.897C249.262 31.6933 248.329 33.5413 247.097 35.744C245.865 37.9093 244.689 39.7387 243.569 41.232C242.449 42.7253 241.123 44.088 239.593 45.32C238.062 46.5147 236.606 47.112 235.225 47.112C229.699 47.112 226.937 44.0133 226.937 37.816C226.937 34.9413 227.777 32.0667 229.457 29.192C231.771 25.1973 234.627 23.2 238.025 23.2C240.414 23.2 241.609 24.5067 241.609 27.12C241.609 29.0613 240.862 31.0773 239.369 33.168C237.278 36.0053 234.833 37.4427 232.033 37.48C231.622 37.48 231.361 37.2933 231.249 36.92L231.193 36.696C233.134 36.696 234.982 35.4267 236.737 32.888C238.529 30.312 239.425 28.1653 239.425 26.448C239.425 25.2907 238.977 24.712 238.081 24.712C236.102 24.712 234.254 26.448 232.537 29.92C231.118 32.8693 230.409 35.8373 230.409 38.824Z" stroke="#CA3D3D" stroke-width="2"/>
<path d="M249.755 38.824C249.755 43.3413 251.36 45.6 254.57 45.6C255.765 45.6 257.016 45.0773 258.323 44.032C259.667 42.9493 260.88 41.6613 261.962 40.168C264.352 36.7333 266.032 33.9333 267.003 31.768L267.73 30.2H269.242C268.608 31.6933 267.675 33.5413 266.443 35.744C265.211 37.9093 264.034 39.7387 262.914 41.232C261.794 42.7253 260.469 44.088 258.939 45.32C257.408 46.5147 255.952 47.112 254.57 47.112C249.045 47.112 246.283 44.0133 246.283 37.816C246.283 34.9413 247.123 32.0667 248.803 29.192C251.117 25.1973 253.973 23.2 257.37 23.2C259.76 23.2 260.954 24.5067 260.954 27.12C260.954 29.0613 260.208 31.0773 258.715 33.168C256.624 36.0053 254.178 37.4427 251.378 37.48C250.968 37.48 250.706 37.2933 250.594 36.92L250.538 36.696C252.48 36.696 254.328 35.4267 256.083 32.888C257.875 30.312 258.771 28.1653 258.771 26.448C258.771 25.2907 258.322 24.712 257.426 24.712C255.448 24.712 253.6 26.448 251.882 29.92C250.464 32.8693 249.755 35.8373 249.755 38.824Z" stroke="#CA3D3D" stroke-width="2" mask="url(#path-1-outside-1)"/>
<path d="M278.956 1.36C280.636 1.36 281.476 2.48 281.476 4.72C281.476 5.28 281.42 5.93333 281.308 6.68C280.748 10.2267 279.274 13.8853 276.884 17.656C275.167 20.3813 273.543 22.0987 272.012 22.808C271.266 26.84 270.612 30.4987 270.052 33.784H270.444C273.58 26.8027 276.754 23.312 279.964 23.312C281.122 23.312 282.018 23.6667 282.652 24.376C283.324 25.0853 283.66 26.056 283.66 27.288C283.66 28.52 283.175 31.2267 282.204 35.408C281.234 39.552 280.748 42.4453 280.748 44.088C280.748 46.5147 281.196 47.728 282.092 47.728C282.092 47.9893 281.924 48.2507 281.588 48.512C281.252 48.7733 280.86 48.904 280.412 48.904C278.247 48.904 277.164 47.2053 277.164 43.808C277.164 41.7173 277.706 38.6187 278.788 34.512C279.908 30.368 280.468 27.6987 280.468 26.504C280.468 25.3093 280.002 24.712 279.068 24.712C277.986 24.712 276.791 25.6267 275.484 27.456C274.178 29.2853 272.964 31.6187 271.844 34.456C269.978 39.0107 268.578 42.8187 267.644 45.88C267.42 46.6267 267.103 47 266.692 47C266.02 47 265.516 46.5893 265.18 45.768C264.994 45.32 264.9 44.8533 264.9 44.368C264.9 43.8453 265.05 42.912 265.348 41.568C265.647 40.1867 266.151 37.7787 266.86 34.344C267.532 30.9093 268.111 28.072 268.596 25.832C269.082 23.5547 269.642 21.016 270.276 18.216C270.911 15.3787 271.508 13.0827 272.068 11.328C272.666 9.536 273.338 7.81867 274.084 6.176C275.503 2.96533 277.127 1.36 278.956 1.36ZM280.188 4.832C280.188 3.63733 279.852 2.90933 279.18 2.648C276.978 2.648 274.7 8.808 272.348 21.128C273.842 20.0827 275.391 17.992 276.996 14.856C279.124 10.6373 280.188 7.296 280.188 4.832Z" stroke="#CA3D3D" stroke-width="2"/>
<path d="M306.293 45.656C307.264 45.656 308.626 44.368 310.381 41.792C312.136 39.216 313.648 36.64 314.917 34.064L316.821 30.2H318.333C318.109 30.648 317.81 31.264 317.437 32.048C317.101 32.7947 316.41 34.1573 315.365 36.136C314.32 38.0773 313.312 39.7947 312.341 41.288C311.408 42.7813 310.344 44.144 309.149 45.376C307.992 46.5707 306.89 47.168 305.845 47.168C304.8 47.168 303.941 46.8507 303.269 46.216C302.448 45.3947 302.037 43.9573 302.037 41.904C302.037 39.8507 302.392 37.144 303.101 33.784H302.709C298.416 42.5947 294.85 47 292.013 47C289.512 47 288.261 45.376 288.261 42.128C288.261 39.776 289.269 35.0907 291.285 28.072C291.733 26.4667 292.069 25.272 292.293 24.488C292.517 23.6667 292.872 23.256 293.357 23.256C294.029 23.256 294.514 23.7413 294.813 24.712C294.962 25.1227 295.037 25.6453 295.037 26.28C295.037 26.8773 294.944 27.5493 294.757 28.296C294.57 29.0053 294.178 30.3867 293.581 32.44C291.976 37.9653 291.173 41.68 291.173 43.584C291.173 44.816 291.546 45.432 292.293 45.432C293.226 45.432 294.328 44.592 295.597 42.912C296.941 41.1573 298.042 39.4587 298.901 37.816C299.76 36.1733 300.45 34.8293 300.973 33.784C301.496 32.7387 302.018 31.656 302.541 30.536C303.064 29.3787 303.474 28.4267 303.773 27.68C304.109 26.9333 304.426 26.224 304.725 25.552C305.024 24.8427 305.173 24.4693 305.173 24.432C305.509 23.648 305.882 23.256 306.293 23.256C306.965 23.256 307.45 23.7413 307.749 24.712C307.898 25.16 307.973 25.7013 307.973 26.336C307.973 26.9707 307.898 27.6427 307.749 28.352C307.6 29.024 307.357 30.032 307.021 31.376C306.685 32.72 306.424 33.8213 306.237 34.68C306.05 35.5387 305.826 36.584 305.565 37.816C305.192 39.8693 305.005 41.6987 305.005 43.304C305.005 44.872 305.434 45.656 306.293 45.656Z" stroke="#CA3D3D" stroke-width="2" />
</g>
</svg>
