<svg width="213" height="242" viewBox="0 0 213 242" fill="none" xmlns="http://www.w3.org/2000/svg">
<path d="M146 36.5C146 36.5 146 38.5 142.75 54V54C142.252 58.3181 141.244 62.5621 139.748 66.6432L136.5 75.5V75.5C122.911 83.7859 110.65 94.0749 100.132 106.02L93.6212 113.413C88.8806 118.797 84.5561 124.533 80.685 130.572L77.5852 135.407C76.0989 137.726 72.6072 137.369 71.6209 134.797V134.797C63.9066 114.685 53.6021 95.6647 40.968 78.2178L39 75.5V75.5C77.424 75.5 118.415 75.9978 140.681 44.6825C142.719 41.8161 144.513 39.0559 146 36.5Z" fill="#6751EF"/>
<path d="M127 17.6777L128.197 17.1548C135.753 13.8549 141.683 7.68187 144.678 1.13249e-06V1.13249e-06V1.13249e-06C148.108 7.73315 154.241 13.949 161.928 17.4814L162.355 17.6777V17.6777C154.462 20.7584 148.168 26.9258 144.926 34.7544L144.678 35.3553V35.3553C141.71 27.2003 135.31 20.7604 127.174 17.7422L127 17.6777Z" fill="#FB9F3C"/>
<path d="M138.877 176.894L126.3 174.402C106.274 170.433 85.6396 177.31 72 192.5V192.5L51.8771 214.394L90.3843 128V128C99.4372 134.649 107.779 142.215 115.278 150.577L138.877 176.894Z" fill="#6751EF"/>
<path d="M86 142C86.9972 133.76 87.8276 123.494 84.5 124.5" stroke="#6751EF"/>
<path d="M138.5 62.5C143 63.5 130.5 93 122.5 109.5C114.5 126 104.158 132.197 106.5 142.5C109 153.5 85.5 139.5 85.5 139.5L87 124.5L80 121.5L106.5 98L115.5 85.5C115.5 85.5 134 61.5 138.5 62.5Z" fill="#6751EF"/>
<path d="M84.5 124L90 122V127L86 125.5L84.5 124Z" fill="#6751EF"/>
<path d="M107 50C107 58.8366 99.8366 66 91 66C82.1634 66 75 58.8366 75 50C75 41.1634 82.1634 34 91 34C99.8366 34 107 41.1634 107 50Z" fill="#6751EF"/>
<path d="M11.9034 233H5.40344L4.16344 236H0.843437L7.08344 222H10.2834L16.5434 236H13.1434L11.9034 233ZM10.8834 230.54L8.66344 225.18L6.44344 230.54H10.8834ZM30.7359 236L30.7159 227.6L26.5959 234.52H25.1359L21.0359 227.78V236H17.9959V222H20.6759L25.9159 230.7L31.0759 222H33.7359L33.7759 236H30.7359ZM47.3775 228.72C48.1775 228.973 48.8042 229.4 49.2575 230C49.7108 230.587 49.9375 231.313 49.9375 232.18C49.9375 233.407 49.4575 234.353 48.4975 235.02C47.5508 235.673 46.1642 236 44.3375 236H37.0975V222H43.9375C45.6442 222 46.9508 222.327 47.8575 222.98C48.7775 223.633 49.2375 224.52 49.2375 225.64C49.2375 226.32 49.0708 226.927 48.7375 227.46C48.4175 227.993 47.9642 228.413 47.3775 228.72ZM40.3175 224.44V227.74H43.5375C44.3375 227.74 44.9442 227.6 45.3575 227.32C45.7708 227.04 45.9775 226.627 45.9775 226.08C45.9775 225.533 45.7708 225.127 45.3575 224.86C44.9442 224.58 44.3375 224.44 43.5375 224.44H40.3175ZM44.0975 233.56C44.9508 233.56 45.5908 233.42 46.0175 233.14C46.4575 232.86 46.6775 232.427 46.6775 231.84C46.6775 230.68 45.8175 230.1 44.0975 230.1H40.3175V233.56H44.0975ZM52.3905 222H55.6305V236H52.3905V222ZM61.853 224.64H57.373V222H69.573V224.64H65.093V236H61.853V224.64ZM71.3163 222H74.5563V236H71.3163V222ZM84.6588 236.24C83.2054 236.24 81.8921 235.927 80.7188 235.3C79.5588 234.673 78.6454 233.813 77.9788 232.72C77.3254 231.613 76.9988 230.373 76.9988 229C76.9988 227.627 77.3254 226.393 77.9788 225.3C78.6454 224.193 79.5588 223.327 80.7188 222.7C81.8921 222.073 83.2054 221.76 84.6588 221.76C86.1121 221.76 87.4188 222.073 88.5788 222.7C89.7388 223.327 90.6521 224.193 91.3188 225.3C91.9854 226.393 92.3188 227.627 92.3188 229C92.3188 230.373 91.9854 231.613 91.3188 232.72C90.6521 233.813 89.7388 234.673 88.5788 235.3C87.4188 235.927 86.1121 236.24 84.6588 236.24ZM84.6588 233.48C85.4854 233.48 86.2321 233.293 86.8988 232.92C87.5654 232.533 88.0854 232 88.4588 231.32C88.8454 230.64 89.0388 229.867 89.0388 229C89.0388 228.133 88.8454 227.36 88.4588 226.68C88.0854 226 87.5654 225.473 86.8988 225.1C86.2321 224.713 85.4854 224.52 84.6588 224.52C83.8321 224.52 83.0854 224.713 82.4188 225.1C81.7521 225.473 81.2254 226 80.8388 226.68C80.4654 227.36 80.2788 228.133 80.2788 229C80.2788 229.867 80.4654 230.64 80.8388 231.32C81.2254 232 81.7521 232.533 82.4188 232.92C83.0854 233.293 83.8321 233.48 84.6588 233.48ZM107.594 222V236H104.934L97.9538 227.5V236H94.7538V222H97.4338L104.394 230.5V222H107.594ZM126.03 228.78H128.99V234.46C128.23 235.033 127.35 235.473 126.35 235.78C125.35 236.087 124.343 236.24 123.33 236.24C121.877 236.24 120.57 235.933 119.41 235.32C118.25 234.693 117.337 233.833 116.67 232.74C116.017 231.633 115.69 230.387 115.69 229C115.69 227.613 116.017 226.373 116.67 225.28C117.337 224.173 118.257 223.313 119.43 222.7C120.603 222.073 121.923 221.76 123.39 221.76C124.617 221.76 125.73 221.967 126.73 222.38C127.73 222.793 128.57 223.393 129.25 224.18L127.17 226.1C126.17 225.047 124.963 224.52 123.55 224.52C122.657 224.52 121.863 224.707 121.17 225.08C120.477 225.453 119.937 225.98 119.55 226.66C119.163 227.34 118.97 228.12 118.97 229C118.97 229.867 119.163 230.64 119.55 231.32C119.937 232 120.47 232.533 121.15 232.92C121.843 233.293 122.63 233.48 123.51 233.48C124.443 233.48 125.283 233.28 126.03 232.88V228.78ZM140.92 236L138.22 232.1H138.06H135.24V236H132V222H138.06C139.3 222 140.373 222.207 141.28 222.62C142.2 223.033 142.907 223.62 143.4 224.38C143.893 225.14 144.14 226.04 144.14 227.08C144.14 228.12 143.887 229.02 143.38 229.78C142.887 230.527 142.18 231.1 141.26 231.5L144.4 236H140.92ZM140.86 227.08C140.86 226.293 140.607 225.693 140.1 225.28C139.593 224.853 138.853 224.64 137.88 224.64H135.24V229.52H137.88C138.853 229.52 139.593 229.307 140.1 228.88C140.607 228.453 140.86 227.853 140.86 227.08ZM153.487 236.24C152.034 236.24 150.72 235.927 149.547 235.3C148.387 234.673 147.474 233.813 146.807 232.72C146.154 231.613 145.827 230.373 145.827 229C145.827 227.627 146.154 226.393 146.807 225.3C147.474 224.193 148.387 223.327 149.547 222.7C150.72 222.073 152.034 221.76 153.487 221.76C154.94 221.76 156.247 222.073 157.407 222.7C158.567 223.327 159.48 224.193 160.147 225.3C160.814 226.393 161.147 227.627 161.147 229C161.147 230.373 160.814 231.613 160.147 232.72C159.48 233.813 158.567 234.673 157.407 235.3C156.247 235.927 154.94 236.24 153.487 236.24ZM153.487 233.48C154.314 233.48 155.06 233.293 155.727 232.92C156.394 232.533 156.914 232 157.287 231.32C157.674 230.64 157.867 229.867 157.867 229C157.867 228.133 157.674 227.36 157.287 226.68C156.914 226 156.394 225.473 155.727 225.1C155.06 224.713 154.314 224.52 153.487 224.52C152.66 224.52 151.914 224.713 151.247 225.1C150.58 225.473 150.054 226 149.667 226.68C149.294 227.36 149.107 228.133 149.107 229C149.107 229.867 149.294 230.64 149.667 231.32C150.054 232 150.58 232.533 151.247 232.92C151.914 233.293 152.66 233.48 153.487 233.48ZM184.273 222L179.693 236H176.213L173.133 226.52L169.953 236H166.493L161.893 222H165.253L168.413 231.84L171.713 222H174.713L177.913 231.92L181.173 222H184.273ZM189.021 224.64H184.541V222H196.741V224.64H192.261V236H189.021V224.64ZM211.324 222V236H208.084V230.26H201.724V236H198.484V222H201.724V227.52H208.084V222H211.324Z" fill="#6751EF"/>
</svg>
