<svg width="122" height="218" viewBox="0 0 122 218" fill="none" xmlns="http://www.w3.org/2000/svg">
<path d="M97.3347 32.955C97.3347 32.955 97.3347 34.7607 94.4355 48.7553V48.7553C93.991 52.6541 93.091 56.4884 91.7542 60.1784L88.8601 68.1672V68.1672C76.7388 75.6478 65.8031 84.9353 56.4264 95.7126L50.6216 102.384C46.3848 107.254 42.5209 112.441 39.0635 117.9L36.3406 122.199C35.0012 124.314 31.8549 124.003 30.9701 121.668V121.668C24.0974 103.533 14.9189 86.3856 3.66424 70.655L1.8843 68.1672V68.1672C36.183 68.1672 72.7892 68.5798 92.6494 40.2573C94.4428 37.6999 96.0227 35.2373 97.3347 32.955Z" fill="#6751EF"/>
<path d="M80.3855 15.9608L81.4534 15.4887C88.1935 12.5093 93.4838 6.93578 96.1551 6.90154e-06V6.90154e-06V6.90154e-06C99.2147 6.98208 104.686 12.5942 111.544 15.7835L111.925 15.9608V15.9608C104.884 18.7422 99.2683 24.3107 96.377 31.3789L96.1551 31.9215V31.9215C93.508 24.5585 87.7989 18.7441 80.5408 16.0191L80.3855 15.9608Z" fill="#FB9F3C"/>
<path d="M90.9806 159.714L79.9455 157.5C61.9676 153.894 43.4894 160.09 31.3222 173.804V173.804L13.3714 193.572L47.7221 115.568V115.568C55.7976 121.571 63.2371 128.399 69.9207 135.943L90.9806 159.714Z" fill="#6751EF"/>
<path d="M43.8111 128.208C44.7006 120.769 45.4414 111.5 42.473 112.408" stroke="#6751EF"/>
<path d="M90.6442 56.4298C94.6585 57.3327 83.5078 83.9675 76.3713 98.865C69.2348 113.762 60.0095 119.358 62.0983 128.66C64.3285 138.592 43.3651 125.951 43.3651 125.951L44.7032 112.408L38.4587 109.699L62.0983 88.4819L70.1269 77.1959C70.1269 77.1959 86.63 55.5269 90.6442 56.4298Z" fill="#6751EF"/>
<path d="M42.473 111.957L47.3793 110.151V114.665L43.8111 113.311L42.473 111.957Z" fill="#6751EF"/>
<path d="M62.5443 45.1438C62.5443 53.1221 56.1541 59.5898 48.2714 59.5898C40.3886 59.5898 33.9984 53.1221 33.9984 45.1438C33.9984 37.1655 40.3886 30.6978 48.2714 30.6978C56.1541 30.6978 62.5443 37.1655 62.5443 45.1438Z" fill="#6751EF"/>
</svg>
