<svg width="195" height="195" viewBox="0 0 195 195" fill="none" xmlns="http://www.w3.org/2000/svg">
<path d="M155.378 175.963C143.967 184.38 130.857 190.207 116.963 193.038C103.069 195.868 88.7247 195.634 74.9303 192.352C61.1359 189.069 48.2235 182.818 37.0933 174.033C25.963 165.248 16.8829 154.141 10.4859 141.486L40.9408 126.091C45.0989 134.317 51.001 141.536 58.2356 147.246C65.4703 152.957 73.8634 157.02 82.8297 159.154C91.796 161.287 101.12 161.439 110.151 159.599C119.182 157.76 127.703 153.972 135.12 148.501L155.378 175.963Z" fill="#2BA24C"/>
<path d="M195 97.5C195 112.879 191.362 128.04 184.383 141.745C177.404 155.449 167.282 167.309 154.844 176.354L134.773 148.755C142.858 142.876 149.438 135.167 153.974 126.259C158.51 117.351 160.875 107.497 160.875 97.5H195Z" fill="#3B7DED"/>
<path d="M10.415 141.346C2.32224 125.272 -1.16409 107.272 0.342091 89.3397C1.84827 71.4069 8.28817 54.2409 18.9487 39.7424L46.4416 59.9576C39.5123 69.3816 35.3264 80.5395 34.3474 92.1958C33.3683 103.852 35.6345 115.552 40.8948 126L10.415 141.346Z" fill="#F0B501"/>
<path d="M18.8619 39.8607C27.2452 28.4232 38.0225 18.9521 50.4423 12.1078C62.8621 5.26356 76.6254 1.21087 90.7724 0.232382C104.919 -0.746107 119.11 1.37316 132.353 6.44239C145.597 11.5116 157.576 19.4088 167.454 29.5832L142.97 53.3541C136.549 46.7407 128.763 41.6076 120.155 38.3126C111.546 35.0176 102.323 33.64 93.1271 34.2761C83.9315 34.9121 74.9854 37.5463 66.9125 41.9951C58.8396 46.4439 51.8344 52.6001 46.3852 60.0344L18.8619 39.8607Z" fill="#E43E2B"/>
<path d="M91 84H195V100C195 109.389 187.389 117 178 117H91V84Z" fill="#3B7DED"/>
</svg>
